<svg xmlns="http://www.w3.org/2000/svg" xmlns:svg="http://www.w3.org/2000/svg" xmlns:xlink="http://www.w3.org/1999/xlink" id="svg6299" width="240.909" height="240.901" version="1.1" viewBox="0 0 63.741 63.739"><defs id="defs6293"><radialGradient id="radialGradient5982" cx="143.151" cy="189.567" r="28.9" fx="143.151" fy="189.567" gradientTransform="matrix(1.063491,-2.1103575e-7,2.0949672e-7,1.0557352,-94.787846,-123.87101)" gradientUnits="userSpaceOnUse" xlink:href="#linearGradient5978"/><linearGradient id="linearGradient5978"><stop id="stop5974" offset="0" stop-color="#000" stop-opacity="1"/><stop id="stop5976" offset="1" stop-color="#000" stop-opacity="0"/></linearGradient><radialGradient id="radialGradient6248" cx="143.628" cy="162.113" r="2.3" fx="143.628" fy="162.113" gradientTransform="matrix(1.9006598,-1.1185556,1.1826415,2.0095552,-406.65692,-112.1799)" gradientUnits="userSpaceOnUse" xlink:href="#linearGradient6244"/><linearGradient id="linearGradient6244"><stop id="stop6242" offset="0" stop-color="#000" stop-opacity="0"/><stop id="stop6260" offset=".052" stop-color="#fff" stop-opacity=".127"/><stop id="stop6258" offset=".145" stop-color="#2c2a28" stop-opacity=".235"/><stop id="stop6240" offset="1" stop-color="#bbb1ab" stop-opacity="1"/></linearGradient></defs><metadata id="metadata6296"/><g id="layer1" transform="translate(-25.582095,-44.39265)"><path id="path127-7" fill="#c8beb7" stroke-width=".265" d="m 53.987945,44.41434 a 32.072342,32.072342 0 0 0 -9.46867,2.54041 5.585192,5.585192 0 0 1 -0.14573,0.34727 5.585192,5.585192 0 0 1 -0.26665,0.49093 5.585192,5.585192 0 0 1 -0.31368,0.46147 5.585192,5.585192 0 0 1 -0.35863,0.42788 5.585192,5.585192 0 0 1 -0.39946,0.39015 5.585192,5.585192 0 0 1 -0.43615,0.3483 5.585192,5.585192 0 0 1 -0.46922,0.30283 5.585192,5.585192 0 0 1 -0.34882,0.18552 5.585192,5.585192 0 0 1 -0.51366,0.21859 5.585192,5.585192 0 0 1 -0.53279,0.1664 5.585192,5.585192 0 0 1 -0.54673,0.11265 5.585192,5.585192 0 0 1 -0.55553,0.0574 5.585192,5.585192 0 0 1 -0.5581,0.002 5.585192,5.585192 0 0 1 -0.54467,-0.0532 32.072342,32.072342 0 0 0 -6.93136,6.92775 5.585192,5.585192 0 0 1 0.0481,0.38085 5.585192,5.585192 0 0 1 0.0145,0.55811 5.585192,5.585192 0 0 1 -0.0408,0.55655 5.585192,5.585192 0 0 1 -0.0966,0.54984 5.585192,5.585192 0 0 1 -0.15089,0.53795 5.585192,5.585192 0 0 1 -0.20361,0.51935 5.585192,5.585192 0 0 1 -0.25476,0.49713 5.585192,5.585192 0 0 1 -0.20929,0.33434 5.585192,5.585192 0 0 1 -0.33538,0.44649 5.585192,5.585192 0 0 1 -0.37827,0.41083 5.585192,5.585192 0 0 1 -0.41755,0.37052 5.585192,5.585192 0 0 1 -0.45217,0.32762 5.585192,5.585192 0 0 1 -0.48266,0.28009 5.585192,5.585192 0 0 1 -0.50849,0.23099 5.585192,5.585192 0 0 1 -0.0134,0.005 32.072342,32.072342 0 0 0 -2.53473,9.43198 5.585192,5.585192 0 0 1 0.25115,0.33021 5.585192,5.585192 0 0 1 0.29197,0.47594 5.585192,5.585192 0 0 1 0.24236,0.50281 5.585192,5.585192 0 0 1 0.19172,0.52452 5.585192,5.585192 0 0 1 0.13798,0.54053 5.585192,5.585192 0 0 1 0.0832,0.55242 5.585192,5.585192 0 0 1 0.0279,0.55759 5.585192,5.585192 0 0 1 -0.0139,0.39429 5.585192,5.585192 0 0 1 -0.0672,0.55449 5.585192,5.585192 0 0 1 -0.12196,0.54467 5.585192,5.585192 0 0 1 -0.17621,0.52968 5.585192,5.585192 0 0 1 -0.2279,0.50953 5.585192,5.585192 0 0 1 -0.27802,0.48421 5.585192,5.585192 0 0 1 -0.31832,0.44545 32.072342,32.072342 0 0 0 2.54093,9.47022 5.585192,5.585192 0 0 1 0.34675,0.14522 5.585192,5.585192 0 0 1 0.49092,0.26665 5.585192,5.585192 0 0 1 0.46147,0.31367 5.585192,5.585192 0 0 1 0.42788,0.35864 5.585192,5.585192 0 0 1 0.39016,0.39946 5.585192,5.585192 0 0 1 0.3483,0.43614 5.585192,5.585192 0 0 1 0.30282,0.46923 5.585192,5.585192 0 0 1 0.185,0.34881 5.585192,5.585192 0 0 1 0.21911,0.51315 5.585192,5.585192 0 0 1 0.1664,0.5333 5.585192,5.585192 0 0 1 0.11266,0.54674 5.585192,5.585192 0 0 1 0.0574,0.555 5.585192,5.585192 0 0 1 0.002,0.55862 5.585192,5.585192 0 0 1 -0.0532,0.54364 32.072342,32.072342 0 0 0 6.92825,6.93239 5.585192,5.585192 0 0 1 0.38034,-0.048 5.585192,5.585192 0 0 1 0.55811,-0.015 5.585192,5.585192 0 0 1 0.55655,0.0413 5.585192,5.585192 0 0 1 0.54984,0.0961 5.585192,5.585192 0 0 1 0.53744,0.15089 5.585192,5.585192 0 0 1 0.51986,0.20361 5.585192,5.585192 0 0 1 0.49661,0.25476 5.585192,5.585192 0 0 1 0.3359,0.20981 5.585192,5.585192 0 0 1 0.44596,0.33538 5.585192,5.585192 0 0 1 0.41083,0.37827 5.585192,5.585192 0 0 1 0.37052,0.41755 5.585192,5.585192 0 0 1 0.32763,0.45217 5.585192,5.585192 0 0 1 0.28061,0.48265 5.585192,5.585192 0 0 1 0.23047,0.5085 5.585192,5.585192 0 0 1 0.005,0.0134 32.072342,32.072342 0 0 0 9.43147,2.53422 5.585192,5.585192 0 0 1 0.33021,-0.25063 5.585192,5.585192 0 0 1 0.47594,-0.29198 5.585192,5.585192 0 0 1 0.50281,-0.24287 5.585192,5.585192 0 0 1 0.524,-0.19121 5.585192,5.585192 0 0 1 0.54105,-0.13849 5.585192,5.585192 0 0 1 0.55191,-0.0832 5.585192,5.585192 0 0 1 0.55758,-0.0279 5.585192,5.585192 0 0 1 0.39533,0.014 5.585192,5.585192 0 0 1 0.55397,0.0672 5.585192,5.585192 0 0 1 0.54519,0.12247 5.585192,5.585192 0 0 1 0.52968,0.1757 5.585192,5.585192 0 0 1 0.50953,0.22841 5.585192,5.585192 0 0 1 0.48421,0.2775 5.585192,5.585192 0 0 1 0.44545,0.31885 32.072342,32.072342 0 0 0 9.46971,-2.54093 5.585192,5.585192 0 0 1 0.14521,-0.34727 5.585192,5.585192 0 0 1 0.26665,-0.49041 5.585192,5.585192 0 0 1 0.31367,-0.46199 5.585192,5.585192 0 0 1 0.35864,-0.42788 5.585192,5.585192 0 0 1 0.39946,-0.39015 5.585192,5.585192 0 0 1 0.43615,-0.3483 5.585192,5.585192 0 0 1 0.4687,-0.30283 5.585192,5.585192 0 0 0 5.3e-4,0 5.585192,5.585192 0 0 1 0.49661,-0.25476 5.585192,5.585192 0 0 1 0.51986,-0.20361 5.585192,5.585192 0 0 1 0.53795,-0.15089 5.585192,5.585192 0 0 1 0.54984,-0.0966 5.585192,5.585192 0 0 1 0.55656,-0.0408 5.585192,5.585192 0 0 1 0.5581,0.015 5.585192,5.585192 0 0 1 0.37466,0.0475 32.072342,32.072342 0 0 0 6.93859,-6.9324 5.585192,5.585192 0 0 1 -0.0486,-0.38085 5.585192,5.585192 0 0 1 -0.0145,-0.55811 5.585192,5.585192 0 0 1 0.0408,-0.55707 5.585192,5.585192 0 0 1 0.0966,-0.54984 5.585192,5.585192 0 0 1 0.1509,-0.53743 5.585192,5.585192 0 0 1 0.2036,-0.51987 5.585192,5.585192 0 0 1 0.25477,-0.49661 5.585192,5.585192 0 0 0 0,-5.3e-4 5.585192,5.585192 0 0 1 0.30334,-0.46871 5.585192,5.585192 0 0 1 0.3483,-0.43666 5.585192,5.585192 0 0 1 0.39016,-0.39895 5.585192,5.585192 0 0 1 0.42788,-0.35863 5.585192,5.585192 0 0 1 0.46147,-0.31368 5.585192,5.585192 0 0 1 0.49092,-0.26665 5.585192,5.585192 0 0 1 0.37259,-0.15606 32.072342,32.072342 0 0 0 2.53783,-9.43715 5.585192,5.585192 0 0 1 -0.25115,-0.33021 5.585192,5.585192 0 0 1 -0.29197,-0.47594 5.585192,5.585192 0 0 1 -0.24288,-0.50281 5.585192,5.585192 0 0 1 -0.1912,-0.524 5.585192,5.585192 0 0 1 -0.13849,-0.54105 5.585192,5.585192 0 0 1 -0.0832,-0.55191 5.585192,5.585192 0 0 1 -0.0279,-0.55759 5.585192,5.585192 0 0 1 0.0139,-0.39584 5.585192,5.585192 0 0 1 0.0672,-0.55397 5.585192,5.585192 0 0 1 0.12196,-0.54519 5.585192,5.585192 0 0 1 0.17622,-0.52968 5.585192,5.585192 0 0 1 0.22789,-0.50953 5.585192,5.585192 0 0 1 0.27802,-0.48421 5.585192,5.585192 0 0 1 0.31833,-0.44597 32.072342,32.072342 0 0 0 -2.54042,-9.46815 5.585192,5.585192 0 0 1 -0.34726,-0.14573 5.585192,5.585192 0 0 1 -0.49041,-0.26665 5.585192,5.585192 0 0 1 -0.46199,-0.31368 5.585192,5.585192 0 0 1 -0.42788,-0.35863 5.585192,5.585192 0 0 1 -0.39016,-0.39946 5.585192,5.585192 0 0 1 -0.3483,-0.43615 5.585192,5.585192 0 0 1 -0.30282,-0.4687 5.585192,5.585192 0 0 1 -0.18552,-0.34985 5.585192,5.585192 0 0 1 -0.21911,-0.51367 5.585192,5.585192 0 0 1 -0.16639,-0.53278 5.585192,5.585192 0 0 1 -0.11266,-0.54674 5.585192,5.585192 0 0 1 -0.0568,-0.55552 5.585192,5.585192 0 0 1 -0.002,-0.5581 5.585192,5.585192 0 0 1 0.0532,-0.54416 32.072342,32.072342 0 0 0 -6.92877,-6.93239 5.585192,5.585192 0 0 1 -0.37982,0.0486 5.585192,5.585192 0 0 1 -0.55811,0.0145 5.585192,5.585192 0 0 1 -0.55656,-0.0408 5.585192,5.585192 0 0 1 -0.54983,-0.0966 5.585192,5.585192 0 0 1 -0.53745,-0.1509 5.585192,5.585192 0 0 1 -0.51986,-0.20361 5.585192,5.585192 0 0 1 -0.49713,-0.25476 5.585192,5.585192 0 0 1 -0.33486,-0.20929 5.585192,5.585192 0 0 1 -0.44597,-0.33538 5.585192,5.585192 0 0 1 -0.41083,-0.37827 5.585192,5.585192 0 0 1 -0.37104,-0.41755 5.585192,5.585192 0 0 1 -0.32711,-0.45217 5.585192,5.585192 0 0 1 -0.2806,-0.48265 5.585192,5.585192 0 0 1 -0.23099,-0.50798 5.585192,5.585192 0 0 1 -0.005,-0.0134 32.072342,32.072342 0 0 0 -9.43084,-2.53472 5.585192,5.585192 0 0 1 -0.33073,0.25115 5.585192,5.585192 0 0 1 -0.47594,0.29145 5.585192,5.585192 0 0 1 -0.50281,0.24288 5.585192,5.585192 0 0 1 -0.52452,0.19172 5.585192,5.585192 0 0 1 -0.54054,0.13798 5.585192,5.585192 0 0 1 -0.55242,0.0832 5.585192,5.585192 0 0 1 -0.55759,0.0279 5.585192,5.585192 0 0 1 -0.3948,-0.014 5.585192,5.585192 0 0 1 -0.55449,-0.0672 5.585192,5.585192 0 0 1 -0.54467,-0.12195 5.585192,5.585192 0 0 1 -0.52968,-0.17622 5.585192,5.585192 0 0 1 -0.50953,-0.22789 5.585192,5.585192 0 0 1 -0.48421,-0.27802 5.585192,5.585192 0 0 1 -0.44597,-0.31833 z"/><path id="path10-7-5" fill="none" fill-opacity="1" fill-rule="nonzero" stroke="url(#radialGradient5982)" stroke-dasharray="none" stroke-dashoffset="0" stroke-linecap="butt" stroke-linejoin="miter" stroke-miterlimit="4" stroke-opacity="1" stroke-width="6.318" d="m 57.453525,44.55829 c -17.50779,-10e-6 -31.70476,14.19468 -31.70476,31.70247 0,17.50779 14.19697,31.70476 31.70476,31.70476 17.50778,-3e-5 31.70247,-14.19699 31.70247,-31.70476 0,-17.50778 -14.19469,-31.70245 -31.70247,-31.70247 z m 0,0.26065 c 17.36701,3e-5 31.4418,14.07481 31.44182,31.44182 -2e-5,17.36701 -14.07481,31.44408 -31.44182,31.44409 -17.36702,2e-5 -31.44409,-14.07707 -31.44409,-31.44409 0,-17.36702 14.07707,-31.44182 31.44409,-31.44182 z" baseline-shift="baseline" clip-rule="nonzero" color="#000" color-interpolation="sRGB" color-interpolation-filters="linearRGB" color-rendering="auto" direction="ltr" display="inline" dominant-baseline="auto" enable-background="accumulate" font-family="sans-serif" font-size="medium" font-stretch="normal" font-style="normal" font-variant="normal" font-weight="normal" image-rendering="auto" letter-spacing="normal" opacity="1" overflow="visible" shape-rendering="auto" text-anchor="start" text-decoration="none" text-rendering="auto" vector-effect="none" visibility="visible" word-spacing="normal" writing-mode="lr-tb" style="line-height:normal;font-variant-ligatures:normal;font-variant-position:normal;font-variant-caps:normal;font-variant-numeric:normal;font-variant-alternates:normal;font-feature-settings:normal;text-indent:0;text-align:start;text-decoration-line:none;text-decoration-style:solid;text-decoration-color:#000;text-transform:none;text-orientation:mixed;white-space:normal;shape-padding:0;isolation:auto;mix-blend-mode:normal;solid-color:#000;solid-opacity:1"/><circle id="path6216" cx="57.452" cy="53.508" r="2.3" fill="url(#radialGradient6248)" fill-opacity="1" stroke="#b3aaa3" stroke-dasharray="none" stroke-miterlimit="4" stroke-opacity=".01" stroke-width=".154"/></g></svg>